<?xml version="1.0" encoding="UTF-8" standalone="no"?>
<!DOCTYPE svg PUBLIC "-//W3C//DTD SVG 1.1//EN" "http://www.w3.org/Graphics/SVG/1.1/DTD/svg11.dtd">
<svg width="100%" height="100%" viewBox="0 0 1507 198" version="1.1" xmlns="http://www.w3.org/2000/svg" xmlns:xlink="http://www.w3.org/1999/xlink" xml:space="preserve" xmlns:serif="http://www.serif.com/" style="fill-rule:evenodd;clip-rule:evenodd;stroke-linejoin:round;stroke-miterlimit:2;">
    <g id="Artboard1" transform="matrix(0.735627,0,0,0.128605,0,0)">
        <rect x="0" y="0" width="2048" height="1536" style="fill:none;"/>
        <g transform="matrix(1.18086,0,0,7.77578,-298.436,-5006.18)">
            <path d="M1924.28,707.297L1924.28,798.342C1924.28,801.133 1921.67,803.4 1918.46,803.4L1629.6,803.4C1626.39,803.4 1623.78,801.133 1623.78,798.342L1623.78,707.297C1623.78,704.506 1626.39,702.239 1629.6,702.239L1918.46,702.239C1921.67,702.239 1924.28,704.506 1924.28,707.297Z" style="fill:rgb(75,72,129);"/>
        </g>
        <g transform="matrix(211.74,0,0,1211.17,802.5,1203.2)">
            <path d="M0.807,-0L0.566,-0L0.557,-0.249L0.548,-0.249L0.522,-0L0.293,-0L0.27,-0.249L0.262,-0.249L0.251,-0L0.02,-0L0.046,-0.621L0.374,-0.621L0.405,-0.395L0.419,-0.395L0.445,-0.621L0.781,-0.621L0.807,-0Z" style="fill:rgb(75,72,129);fill-rule:nonzero;"/>
            <path d="M0.41,-0.558L0.421,-0.648L0.807,-0.648L0.835,0.027L-0.008,0.027L0.02,-0.648L0.398,-0.648L0.41,-0.558ZM0.807,0L0.781,-0.621L0.445,-0.621L0.419,-0.395L0.405,-0.395L0.374,-0.621L0.046,-0.621L0.02,0L0.251,0L0.262,-0.249L0.27,-0.249L0.293,0L0.522,0L0.548,-0.249L0.557,-0.249L0.566,0L0.807,0Z" style="fill:white;"/>
        </g>
        <g transform="matrix(211.74,0,0,1211.17,975.492,1203.2)">
            <path d="M0.006,-0.315C0.006,-0.426 0.032,-0.506 0.083,-0.556C0.134,-0.605 0.218,-0.63 0.336,-0.63C0.454,-0.63 0.538,-0.606 0.589,-0.557C0.639,-0.507 0.664,-0.428 0.664,-0.317C0.664,-0.206 0.638,-0.123 0.586,-0.07C0.534,-0.017 0.45,0.01 0.334,0.01C0.217,0.01 0.134,-0.016 0.083,-0.069C0.032,-0.122 0.006,-0.204 0.006,-0.315ZM0.357,-0.157L0.357,-0.435L0.325,-0.435L0.325,-0.157L0.357,-0.157Z" style="fill:rgb(75,72,129);fill-rule:nonzero;"/>
            <path d="M-0.021,-0.315C-0.021,-0.435 0.009,-0.521 0.064,-0.576L0.064,-0.576C0.119,-0.628 0.209,-0.657 0.336,-0.657C0.463,-0.657 0.553,-0.629 0.608,-0.577L0.608,-0.576C0.662,-0.522 0.691,-0.437 0.691,-0.317C0.691,-0.197 0.662,-0.108 0.606,-0.051C0.549,0.006 0.459,0.037 0.334,0.037C0.208,0.037 0.118,0.007 0.063,-0.05C0.008,-0.107 -0.021,-0.195 -0.021,-0.315ZM0.006,-0.315C0.006,-0.204 0.032,-0.122 0.083,-0.069C0.134,-0.016 0.217,0.01 0.334,0.01C0.45,0.01 0.534,-0.017 0.586,-0.07C0.638,-0.123 0.664,-0.206 0.664,-0.317C0.664,-0.428 0.639,-0.507 0.589,-0.557C0.538,-0.606 0.454,-0.63 0.336,-0.63C0.218,-0.63 0.134,-0.605 0.083,-0.556C0.032,-0.506 0.006,-0.426 0.006,-0.315ZM0.357,-0.157L0.325,-0.157L0.325,-0.435L0.357,-0.435L0.357,-0.157Z" style="fill:white;"/>
        </g>
        <g transform="matrix(211.74,0,0,1211.17,1117.36,1203.2)">
            <path d="M0.473,-0.419L0.383,-0.419L0.383,-0L0.1,-0L0.1,-0.419L0,-0.419L0.01,-0.621L0.486,-0.621L0.473,-0.419Z" style="fill:rgb(75,72,129);fill-rule:nonzero;"/>
            <path d="M0.41,-0.392L0.41,0.027L0.073,0.027C0.073,0.027 0.073,-0.392 0.073,-0.392L-0.029,-0.392L-0.016,-0.648L0.515,-0.648L0.499,-0.392L0.41,-0.392ZM0.473,-0.419L0.486,-0.621L0.01,-0.621L0,-0.419L0.1,-0.419L0.1,0L0.383,0L0.383,-0.419L0.473,-0.419Z" style="fill:white;"/>
        </g>
        <g transform="matrix(211.74,0,0,1211.17,1220.26,1203.2)">
            <rect x="0.02" y="-0.621" width="0.282" height="0.621" style="fill:rgb(75,72,129);"/>
            <path d="M0.329,0.027L-0.007,0.027L-0.007,-0.648L0.329,-0.648L0.329,0.027ZM0.302,-0.621L0.02,-0.621L0.02,0L0.302,0L0.302,-0.621Z" style="fill:white;"/>
        </g>
        <g transform="matrix(211.74,0,0,1211.17,1288.44,1203.2)">
            <path d="M0.006,-0.315C0.006,-0.426 0.032,-0.506 0.083,-0.556C0.134,-0.605 0.218,-0.63 0.336,-0.63C0.454,-0.63 0.538,-0.606 0.589,-0.557C0.639,-0.507 0.664,-0.428 0.664,-0.317C0.664,-0.206 0.638,-0.123 0.586,-0.07C0.534,-0.017 0.45,0.01 0.334,0.01C0.217,0.01 0.134,-0.016 0.083,-0.069C0.032,-0.122 0.006,-0.204 0.006,-0.315ZM0.357,-0.157L0.357,-0.435L0.325,-0.435L0.325,-0.157L0.357,-0.157Z" style="fill:rgb(75,72,129);fill-rule:nonzero;"/>
            <path d="M-0.021,-0.315C-0.021,-0.435 0.009,-0.521 0.064,-0.576L0.064,-0.576C0.119,-0.628 0.209,-0.657 0.336,-0.657C0.463,-0.657 0.553,-0.629 0.608,-0.577L0.608,-0.576C0.662,-0.522 0.691,-0.437 0.691,-0.317C0.691,-0.197 0.662,-0.108 0.606,-0.051C0.549,0.006 0.459,0.037 0.334,0.037C0.208,0.037 0.118,0.007 0.063,-0.05C0.008,-0.107 -0.021,-0.195 -0.021,-0.315ZM0.006,-0.315C0.006,-0.204 0.032,-0.122 0.083,-0.069C0.134,-0.016 0.217,0.01 0.334,0.01C0.45,0.01 0.534,-0.017 0.586,-0.07C0.638,-0.123 0.664,-0.206 0.664,-0.317C0.664,-0.428 0.639,-0.507 0.589,-0.557C0.538,-0.606 0.454,-0.63 0.336,-0.63C0.218,-0.63 0.134,-0.605 0.083,-0.556C0.032,-0.506 0.006,-0.426 0.006,-0.315ZM0.357,-0.157L0.325,-0.157L0.325,-0.435L0.357,-0.435L0.357,-0.157Z" style="fill:white;"/>
        </g>
        <g transform="matrix(211.74,0,0,1211.17,1430.31,1203.2)">
            <path d="M0.632,-0L0.376,-0L0.263,-0.199L0.263,-0L0.02,-0L0.02,-0.621L0.283,-0.621L0.387,-0.42L0.387,-0.621L0.632,-0.621L0.632,-0Z" style="fill:rgb(75,72,129);fill-rule:nonzero;"/>
            <path d="M0.36,0.027L0.29,-0.096L0.29,0.027L-0.007,0.027L-0.007,-0.648L0.3,-0.648L0.36,-0.532L0.36,-0.648L0.659,-0.648L0.659,0.027L0.36,0.027ZM0.632,0L0.632,-0.621L0.387,-0.621L0.387,-0.42L0.283,-0.621L0.02,-0.621L0.02,0L0.263,0L0.263,-0.199L0.376,0L0.632,0Z" style="fill:white;"/>
        </g>
        <g transform="matrix(113.35,0,0,648.37,1660.73,1037.91)">
            <path d="M0.49,-0L0.323,-0L0.304,-0.098L0.186,-0.098L0.167,-0L0.008,-0L0.122,-0.621L0.376,-0.621L0.49,-0ZM0.285,-0.215L0.25,-0.437L0.243,-0.437L0.208,-0.215L0.285,-0.215Z" style="fill:rgb(236,232,255);fill-rule:nonzero;"/>
        </g>
        <g transform="matrix(113.35,0,0,648.37,1717.18,1037.91)">
            <path d="M0.36,-0L0.044,-0L0.044,-0.621L0.215,-0.621L0.215,-0.139L0.37,-0.139L0.36,-0Z" style="fill:rgb(236,232,255);fill-rule:nonzero;"/>
        </g>
        <g transform="matrix(113.35,0,0,648.37,1758.21,1037.91)">
            <path d="M0.258,-0.203L0.212,-0.203L0.212,-0L0.044,-0L0.044,-0.621L0.247,-0.621C0.318,-0.621 0.371,-0.605 0.406,-0.572C0.441,-0.539 0.458,-0.486 0.458,-0.411C0.458,-0.336 0.442,-0.283 0.409,-0.251C0.376,-0.219 0.326,-0.203 0.258,-0.203ZM0.277,-0.338C0.283,-0.349 0.286,-0.37 0.286,-0.399C0.286,-0.428 0.283,-0.449 0.276,-0.461C0.269,-0.473 0.256,-0.479 0.236,-0.479L0.212,-0.479L0.212,-0.321L0.24,-0.321C0.259,-0.321 0.271,-0.327 0.277,-0.338Z" style="fill:rgb(236,232,255);fill-rule:nonzero;"/>
        </g>
        <g transform="matrix(113.35,0,0,648.37,1810.8,1037.91)">
            <path d="M0.503,-0L0.333,-0L0.333,-0.235L0.216,-0.235L0.216,-0L0.044,-0L0.044,-0.621L0.216,-0.621L0.216,-0.377L0.333,-0.377L0.333,-0.621L0.503,-0.621L0.503,-0Z" style="fill:rgb(236,232,255);fill-rule:nonzero;"/>
        </g>
        <g transform="matrix(113.35,0,0,648.37,1872.35,1037.91)">
            <path d="M0.49,-0L0.323,-0L0.304,-0.098L0.186,-0.098L0.167,-0L0.008,-0L0.122,-0.621L0.376,-0.621L0.49,-0ZM0.285,-0.215L0.25,-0.437L0.243,-0.437L0.208,-0.215L0.285,-0.215Z" style="fill:rgb(236,232,255);fill-rule:nonzero;"/>
        </g>
        <g transform="matrix(372.252,0,0,2129.31,605.601,1419.11)">
            <path d="M0.008,-0.579C0.073,-0.614 0.137,-0.631 0.202,-0.631C0.266,-0.631 0.315,-0.615 0.348,-0.582C0.381,-0.549 0.398,-0.503 0.398,-0.444C0.398,-0.384 0.388,-0.335 0.367,-0.297C0.345,-0.259 0.307,-0.208 0.251,-0.143L0.4,-0.143L0.4,-0L0.033,-0L0.025,-0.102C0.088,-0.169 0.133,-0.22 0.16,-0.255C0.187,-0.29 0.205,-0.318 0.214,-0.341C0.223,-0.364 0.228,-0.385 0.228,-0.405C0.228,-0.424 0.223,-0.439 0.214,-0.45C0.204,-0.461 0.191,-0.466 0.176,-0.466C0.161,-0.466 0.146,-0.464 0.132,-0.46C0.113,-0.455 0.082,-0.443 0.04,-0.424L0.008,-0.579Z" style="fill:rgb(75,72,129);fill-rule:nonzero;"/>
            <path d="M0.001,-0.593C0.068,-0.629 0.135,-0.647 0.202,-0.647C0.271,-0.647 0.323,-0.629 0.359,-0.593C0.395,-0.557 0.414,-0.508 0.414,-0.444C0.414,-0.381 0.403,-0.329 0.381,-0.289L0.38,-0.289C0.361,-0.256 0.33,-0.212 0.285,-0.159L0.416,-0.159L0.416,0.016L0.019,0.016L0.009,-0.108L0.014,-0.113C0.076,-0.179 0.121,-0.23 0.148,-0.264C0.174,-0.298 0.191,-0.325 0.2,-0.347C0.208,-0.368 0.212,-0.387 0.212,-0.405C0.212,-0.42 0.209,-0.431 0.202,-0.44C0.195,-0.447 0.186,-0.45 0.176,-0.45C0.162,-0.45 0.149,-0.449 0.136,-0.445L0.136,-0.445C0.117,-0.44 0.087,-0.428 0.046,-0.41L0.029,-0.402L-0.01,-0.587L0.001,-0.593ZM0.008,-0.579L0.04,-0.424C0.082,-0.443 0.113,-0.455 0.132,-0.46C0.146,-0.464 0.161,-0.466 0.176,-0.466C0.191,-0.466 0.204,-0.461 0.214,-0.45C0.223,-0.439 0.228,-0.424 0.228,-0.405C0.228,-0.385 0.223,-0.364 0.214,-0.341C0.205,-0.318 0.187,-0.29 0.16,-0.255C0.133,-0.22 0.088,-0.169 0.025,-0.102L0.033,0L0.4,0L0.4,-0.143L0.251,-0.143C0.307,-0.208 0.345,-0.259 0.367,-0.297C0.388,-0.335 0.398,-0.384 0.398,-0.444C0.398,-0.503 0.381,-0.549 0.348,-0.582C0.315,-0.615 0.266,-0.631 0.202,-0.631C0.137,-0.631 0.073,-0.614 0.008,-0.579Z" style="fill:white;"/>
        </g>
        <g transform="matrix(211.74,0,0,1211.17,57.5543,1187.93)">
            <path d="M0.807,-0L0.566,-0L0.557,-0.249L0.548,-0.249L0.522,-0L0.293,-0L0.27,-0.249L0.262,-0.249L0.251,-0L0.02,-0L0.046,-0.621L0.374,-0.621L0.405,-0.395L0.419,-0.395L0.445,-0.621L0.781,-0.621L0.807,-0Z" style="fill:rgb(75,72,129);fill-rule:nonzero;"/>
            <path d="M0.41,-0.558L0.421,-0.648L0.807,-0.648L0.835,0.027L-0.008,0.027L0.02,-0.648L0.398,-0.648L0.41,-0.558ZM0.807,0L0.781,-0.621L0.445,-0.621L0.419,-0.395L0.405,-0.395L0.374,-0.621L0.046,-0.621L0.02,0L0.251,0L0.262,-0.249L0.27,-0.249L0.293,0L0.522,0L0.548,-0.249L0.557,-0.249L0.566,0L0.807,0Z" style="fill:white;"/>
        </g>
        <g transform="matrix(211.74,0,0,1211.17,230.546,1187.93)">
            <path d="M0.47,-0L0.02,-0L0.02,-0.621L0.489,-0.621L0.474,-0.417L0.302,-0.417L0.302,-0.381L0.47,-0.381L0.46,-0.215L0.302,-0.215L0.302,-0.179L0.485,-0.179L0.47,-0Z" style="fill:rgb(75,72,129);fill-rule:nonzero;"/>
            <path d="M0.498,-0.39L0.487,-0.206L0.515,-0.206L0.495,0.027L-0.007,0.027L-0.007,-0.648L0.518,-0.648L0.499,-0.39L0.498,-0.39ZM0.47,0L0.485,-0.179L0.302,-0.179L0.302,-0.215L0.46,-0.215L0.47,-0.381L0.302,-0.381L0.302,-0.417L0.474,-0.417L0.489,-0.621L0.02,-0.621L0.02,0L0.47,0Z" style="fill:white;"/>
        </g>
        <g transform="matrix(211.74,0,0,1211.17,334.088,1187.93)">
            <path d="M0.529,-0.204C0.529,-0.061 0.443,0.01 0.272,0.01C0.187,0.01 0.103,0 0.019,-0.02L0.027,-0.202L0.257,-0.158L0.257,-0.176C0.212,-0.185 0.176,-0.195 0.148,-0.205C0.12,-0.214 0.094,-0.228 0.07,-0.245C0.023,-0.278 0,-0.331 0,-0.405C0,-0.478 0.022,-0.533 0.067,-0.572C0.111,-0.611 0.174,-0.63 0.256,-0.63C0.338,-0.63 0.424,-0.623 0.513,-0.609L0.494,-0.41L0.271,-0.444L0.271,-0.425C0.36,-0.413 0.426,-0.392 0.467,-0.361C0.508,-0.329 0.529,-0.277 0.529,-0.204Z" style="fill:rgb(75,72,129);fill-rule:nonzero;"/>
            <path d="M0.482,-0.384C0.482,-0.384 0.484,-0.383 0.484,-0.383C0.531,-0.346 0.556,-0.287 0.556,-0.204C0.556,-0.123 0.531,-0.063 0.482,-0.022C0.435,0.017 0.365,0.037 0.272,0.037C0.185,0.037 0.099,0.027 0.013,0.007L-0.009,0.001L0.001,-0.235L0.051,-0.225C-0.001,-0.263 -0.027,-0.322 -0.027,-0.405C-0.027,-0.487 -0.002,-0.549 0.049,-0.593C0.097,-0.635 0.166,-0.657 0.256,-0.657C0.339,-0.657 0.427,-0.65 0.517,-0.636L0.543,-0.632L0.518,-0.379L0.482,-0.384ZM0.529,-0.204C0.529,-0.277 0.508,-0.329 0.467,-0.361C0.426,-0.392 0.36,-0.413 0.271,-0.425L0.271,-0.444L0.494,-0.41L0.513,-0.609C0.424,-0.623 0.338,-0.63 0.256,-0.63C0.174,-0.63 0.111,-0.611 0.067,-0.572C0.022,-0.533 0,-0.478 0,-0.405C0,-0.331 0.023,-0.278 0.07,-0.245C0.094,-0.228 0.12,-0.214 0.148,-0.205C0.176,-0.195 0.212,-0.185 0.257,-0.176L0.257,-0.158L0.027,-0.202L0.019,-0.02C0.103,0 0.187,0.01 0.272,0.01C0.443,0.01 0.529,-0.061 0.529,-0.204Z" style="fill:white;"/>
        </g>
        <g transform="matrix(211.74,0,0,1211.17,446.098,1187.93)">
            <path d="M0.62,-0L0.336,-0L0.336,-0.218L0.304,-0.218L0.304,-0L0.02,-0L0.02,-0.621L0.304,-0.621L0.304,-0.39L0.336,-0.39L0.336,-0.621L0.62,-0.621L0.62,-0Z" style="fill:rgb(75,72,129);fill-rule:nonzero;"/>
            <path d="M0.647,-0.648L0.647,0.027L-0.007,0.027L-0.007,-0.648L0.647,-0.648ZM0.62,0L0.62,-0.621L0.336,-0.621L0.336,-0.39L0.304,-0.39L0.304,-0.621L0.02,-0.621L0.02,0L0.304,0L0.304,-0.218L0.336,-0.218L0.336,0L0.62,0Z" style="fill:white;"/>
        </g>
    </g>
</svg>
