<?xml version="1.0" encoding="UTF-8" standalone="no"?>
<!DOCTYPE svg PUBLIC "-//W3C//DTD SVG 1.1//EN" "http://www.w3.org/Graphics/SVG/1.1/DTD/svg11.dtd">
<svg width="100%" height="100%" viewBox="0 0 256 256" version="1.1" xmlns="http://www.w3.org/2000/svg" xmlns:xlink="http://www.w3.org/1999/xlink" xml:space="preserve" xmlns:serif="http://www.serif.com/" style="fill-rule:evenodd;clip-rule:evenodd;stroke-linejoin:round;stroke-miterlimit:1.5;">
    <g transform="matrix(1,0,0,1,-1140.9,-4.50976)">
        <g id="Skeleton" transform="matrix(1,0,0,1,1140.9,4.50976)">
            <rect x="0" y="0" width="256" height="256" style="fill:none;"/>
            <g transform="matrix(0.707107,-0.707107,0.707107,0.707107,-55.5102,137.084)">
                <g transform="matrix(1,0,0,1,-1140.9,-4.50976)">
                    <path d="M1328.92,110.496C1328.92,110.496 1330.07,87.629 1351.79,87.629C1373.5,87.629 1379.08,102.425 1379.08,114.915C1379.08,115.628 1379.01,116.329 1379.01,117.018C1379.01,121.007 1372.35,136.245 1372.35,136.245C1372.35,136.245 1380.04,149.081 1380.04,157.382C1380.04,175.83 1363.05,179.673 1357.36,179.673C1335.07,179.673 1329.31,157.767 1329.31,157.767L1221.7,157.767" style="fill:none;stroke:rgb(174,174,174);stroke-width:12px;"/>
                </g>
                <g transform="matrix(1,0,0,1,-1140.9,-4.50976)">
                    <path d="M1328.92,110.496C1328.92,110.496 1330.07,87.629 1351.79,87.629C1373.5,87.629 1379.08,102.425 1379.08,114.915C1379.08,115.628 1379.01,116.329 1379.01,117.018C1379.01,121.007 1372.35,136.245 1372.35,136.245C1372.35,136.245 1380.04,149.081 1380.04,157.382C1380.04,175.83 1363.05,179.673 1357.36,179.673C1335.07,179.673 1329.31,157.767 1329.31,157.767L1221.7,157.767" style="fill:none;stroke:rgb(216,216,216);stroke-width:12px;"/>
                </g>
                <g transform="matrix(-1,1.11022e-16,-1.11022e-16,-1,1408.87,257.565)">
                    <path d="M1328.92,110.496C1328.92,110.496 1330.07,87.629 1351.79,87.629C1373.5,87.629 1379.08,102.425 1379.08,114.915C1379.08,115.628 1379.01,116.329 1379.01,117.018C1379.01,121.007 1372.35,136.245 1372.35,136.245C1372.35,136.245 1380.04,149.081 1380.04,157.382C1380.04,175.83 1363.05,179.673 1357.36,179.673C1335.07,179.673 1329.31,157.767 1329.31,157.767L1221.7,157.767" style="fill:none;stroke:rgb(216,216,216);stroke-width:12px;"/>
                </g>
            </g>
        </g>
    </g>
</svg>
