<?xml version="1.0" encoding="UTF-8" standalone="no"?>
<!DOCTYPE svg PUBLIC "-//W3C//DTD SVG 1.1//EN" "http://www.w3.org/Graphics/SVG/1.1/DTD/svg11.dtd">
<svg width="100%" height="100%" viewBox="0 0 256 256" version="1.1" xmlns="http://www.w3.org/2000/svg" xmlns:xlink="http://www.w3.org/1999/xlink" xml:space="preserve" xmlns:serif="http://www.serif.com/" style="fill-rule:evenodd;clip-rule:evenodd;stroke-linejoin:round;stroke-miterlimit:2;">
    <g transform="matrix(1,0,0,1,-854.917,-0.756658)">
        <g id="Artboard1" transform="matrix(1,0,0,1,854.917,0.756658)">
            <rect x="0" y="0" width="256" height="256" style="fill:none;"/>
            <g transform="matrix(2.12318,0,0,2.12318,-1930.02,-116.591)">
                <path d="M937.571,140.087C939.338,132.672 946.012,127.15 953.965,127.15C963.266,127.15 970.817,134.702 970.817,144.003C970.817,147.031 970.017,149.874 968.616,152.332C968.108,153.736 967.135,155.182 965.574,156.649C954.051,167.481 918.561,161.028 918.561,161.028C918.561,161.028 932.824,150.6 937.571,140.087Z" style="fill:rgb(223,223,223);"/>
            </g>
            <g transform="matrix(2.05161,0,0,2.05161,-1844.86,-201.795)">
                <path d="M963.388,173.056C962.783,172.38 962.117,171.755 961.574,171.029C961.381,170.771 959.978,168.897 959.936,167.345C959.925,166.925 960.009,166.435 960.311,166.144C978.073,148.975 996.114,132.096 1014.02,115.072C1014.15,114.947 1014.89,114.239 1016.11,114.203C1016.36,114.196 1018.04,114.146 1018.78,115.862C1019.24,116.926 1018.9,117.898 1018.85,118.065C1018.38,119.404 1018.12,119.267 970.473,175.715C969.711,176.617 967.782,175.893 967.564,175.811C966.845,175.541 966.16,175.17 965.518,174.747C965.515,174.744 963.389,173.057 963.388,173.056Z" style="fill:rgb(226,226,226);"/>
            </g>
        </g>
    </g>
</svg>
