<?xml version="1.0" encoding="UTF-8" standalone="no"?>
<!DOCTYPE svg PUBLIC "-//W3C//DTD SVG 1.1//EN" "http://www.w3.org/Graphics/SVG/1.1/DTD/svg11.dtd">
<svg width="100%" height="100%" viewBox="0 0 256 256" version="1.1" xmlns="http://www.w3.org/2000/svg" xml:space="preserve" xmlns:serif="http://www.serif.com/" style="stroke-linejoin:round;stroke-miterlimit:2;">
    <g transform="matrix(0.25,0,0,0.25,0,0)">
        <path d="M729.7250787968297 937.504375A31.253125 31.253125 0 1 1 729.7250787968297 875.004375H835.3157037968298L623.8894537968298 608.15875C605.6975787968298 618.535625 585.0332037968299 625.004375 562.7325787968298 625.004375C516.9107037968298 625.004375 477.0738287968299 599.6012499999999 455.3107037968298 562.504375H168.9338287968299L240.5888287968299 634.159375A31.253125 31.253125 0 0 1 217.8838287968299 687.74875A31.25 31.25 0 0 1 196.3994537968299 678.349375L71.3994537968299 553.349375A31.253125 31.253125 0 0 1 71.3994537968299 509.159375L196.3994537968299 384.159375A31.253125 31.253125 0 1 1 240.5888287968299 428.349375L168.9338287968299 500.004375H437.7325787968299C437.7325787968299 431.33875 494.0669537968299 375.004375 562.7325787968298 375.004375S687.7325787968297 431.33875 687.7325787968297 500.004375C687.7325787968297 523.6424999999999 680.6132037968297 545.536875 669.0557037968297 564.4575L875.2325787968297 824.589375V729.4968749999999A31.253125 31.253125 0 1 1 937.7325787968296 729.4968749999999V906.254375A31.253125 31.253125 0 0 1 906.4825787968296 937.504375zM562.7325787968298 562.504375C597.6200787968298 562.504375 625.2325787968298 534.8925 625.2325787968298 500.004375S597.6200787968298 437.504375 562.7325787968298 437.504375S500.2325787968298 465.11625 500.2325787968298 500.004375S527.8444537968297 562.504375 562.7325787968298 562.504375M640.5063287968297 453.853125A31.253125 31.253125 0 0 1 615.7250787968298 402.8275L835.3300787968299 124.995625H729.7394537968299A31.253125 31.253125 0 1 1 729.7394537968299 62.495625H906.4969537968298A31.253125 31.253125 0 0 1 937.7469537968298 93.745625V270.503125A31.253125 31.253125 0 1 1 875.2469537968299 270.503125V175.410625L664.7975787968297 441.6462499999999A31.25 31.25 0 0 1 640.5057037968298 453.8531249999999" style="fill:rgb(228,228,228);"/>
    </g>
</svg>
