<?xml version="1.0" encoding="UTF-8" standalone="no"?>
<!DOCTYPE svg PUBLIC "-//W3C//DTD SVG 1.1//EN" "http://www.w3.org/Graphics/SVG/1.1/DTD/svg11.dtd">
<svg width="100%" height="100%" viewBox="0 0 256 256" version="1.1" xmlns="http://www.w3.org/2000/svg" xmlns:xlink="http://www.w3.org/1999/xlink" xml:space="preserve" xmlns:serif="http://www.serif.com/" style="fill-rule:evenodd;clip-rule:evenodd;stroke-linejoin:round;stroke-miterlimit:2;">
    <g transform="matrix(1,0,0,1,-282.99,-0.756658)">
        <g id="Artboard1" transform="matrix(1,0,0,1,282.99,0.756658)">
            <rect x="0" y="0" width="256" height="256" style="fill:none;"/>
            <g transform="matrix(2.82994,3.04443e-32,-3.04443e-32,2.82994,-218.265,-435.363)">
                <g transform="matrix(1,0,0,1,-1.85956,-0.929782)">
                    <path d="M125.464,155.827L137.861,173.493L113.067,173.493L125.464,155.827Z" style="fill:rgb(228,228,228);"/>
                </g>
                <rect x="120.192" y="175.754" width="6.03" height="11.743" style="fill:rgb(228,228,228);"/>
            </g>
            <g transform="matrix(1.73284e-16,2.82994,-2.82994,1.73284e-16,690.998,-220.296)">
                <g transform="matrix(1,0,0,1,-1.85956,-0.929782)">
                    <path d="M125.464,155.827L137.861,173.493L113.067,173.493L125.464,155.827Z" style="fill:rgb(228,228,228);"/>
                </g>
                <rect x="120.192" y="175.754" width="6.03" height="11.743" style="fill:rgb(228,228,228);"/>
            </g>
            <g transform="matrix(-2.82994,3.46568e-16,-3.46568e-16,-2.82994,479.973,692.56)">
                <g transform="matrix(1,0,0,1,-1.85956,-0.929782)">
                    <path d="M125.464,155.827L137.861,173.493L113.067,173.493L125.464,155.827Z" style="fill:rgb(228,228,228);"/>
                </g>
                <rect x="120.192" y="175.754" width="6.03" height="11.743" style="fill:rgb(228,228,228);"/>
            </g>
            <g transform="matrix(1.73284e-16,-2.82994,2.82994,1.73284e-16,-432.433,478.391)">
                <g transform="matrix(1,0,0,1,-1.85956,-0.929782)">
                    <path d="M125.464,155.827L137.861,173.493L113.067,173.493L125.464,155.827Z" style="fill:rgb(228,228,228);"/>
                </g>
                <rect x="120.192" y="175.754" width="6.03" height="11.743" style="fill:rgb(228,228,228);"/>
            </g>
        </g>
    </g>
</svg>
