<?xml version="1.0" encoding="UTF-8" standalone="no"?>
<!DOCTYPE svg PUBLIC "-//W3C//DTD SVG 1.1//EN" "http://www.w3.org/Graphics/SVG/1.1/DTD/svg11.dtd">
<svg width="100%" height="100%" viewBox="0 0 256 256" version="1.1" xmlns="http://www.w3.org/2000/svg" xml:space="preserve" xmlns:serif="http://www.serif.com/" style="stroke-linejoin:round;stroke-miterlimit:2;">
    <g transform="matrix(0.25,0,0,-0.25,0,256)">
        <path d="M718.1687226172717 750.2175A31.25 31.25 0 0 1 714.9949726172717 749.973125H531.2793476172718A31.253125 31.253125 0 1 1 531.2793476172718 687.473125H643.3399726172718L321.6843476172718 365.818125A31.253125 31.253125 0 1 1 365.8743476172717 321.628125L687.5293476172718 643.28375V531.223125A31.253125 31.253125 0 1 1 750.0293476172718 531.223125V714.93875A31.253125 31.253125 0 0 1 718.1687226172717 750.2175M218.2762226172718 937.97A31.25 31.25 0 0 1 193.9843476172717 925.763125A31.25 31.25 0 0 1 193.7343476172717 925.388125L71.6637226172718 803.318125A31.253125 31.253125 0 1 1 115.8530976172718 759.128125L187.5087226172718 830.78375V357.395C150.4112226172717 335.6318750000001 125.0087226172718 295.795 125.0087226172718 249.973125C125.0087226172718 181.3074999999999 181.3430976172717 124.973125 250.0087226172718 124.973125C295.8305976172718 124.973125 335.6674726172718 150.3762499999999 357.4305976172718 187.473125H830.8187226172716L759.1637226172718 115.818125A31.253125 31.253125 0 1 1 803.3530976172717 71.628125L925.6674726172718 193.943125A31.253125 31.253125 0 0 1 925.7924726172718 243.503125A31.25 31.25 0 0 1 925.4237226172718 243.7531250000001L803.3537226172717 365.82375A31.25 31.25 0 0 1 780.8987226172718 375.3481250000001A31.253125 31.253125 0 0 1 759.1699726172718 321.6368750000002L830.8249726172717 249.9818750000002H375.0149726172717C375.0149726172717 318.6475000000002 318.6799726172718 374.9818750000002 250.0149726172717 374.9818750000002V830.7925L321.6699726172718 759.1368749999999A31.253125 31.253125 0 1 1 365.8593476172718 803.326875L243.5449726172718 925.64125A31.25 31.25 0 0 1 218.2762226172718 937.97M250.0149726172717 312.481875C284.9024726172717 312.481875 312.5149726172717 284.8699999999999 312.5149726172717 249.981875S284.9024726172717 187.481875 250.0149726172717 187.481875S187.5149726172717 215.09375 187.5149726172717 249.981875S215.1268476172717 312.481875 250.0149726172717 312.481875" style="fill:rgb(228,228,228);"/>
    </g>
</svg>
